<svg xmlns="http://www.w3.org/2000/svg" width="1280" height="768" viewBox="0 0 1280 768" role="img" aria-labelledby="title desc">
  <title id="title">Liberal IP Roller English dashboard</title>
  <desc id="desc">English interface screenshot of the Liberal IP Roller dashboard.</desc>
  <defs>
    <style>
      .bg { fill: #27272a; }
      .card { fill: #27272a; stroke: #3f3f46; stroke-width: 2; }
      .accent { fill: #0084ff; }
      .muted { fill: #a1a1aa; font-family: Consolas, 'Liberation Mono', monospace; font-size: 19px; font-weight: 700; }
      .body { fill: #f4f4f5; font-family: Consolas, 'Liberation Mono', monospace; font-size: 20px; font-weight: 700; }
      .brand { fill: #0084ff; font-family: Consolas, 'Liberation Mono', monospace; font-size: 24px; font-weight: 700; }
      .version { fill: #a1a1aa; font-family: Consolas, 'Liberation Mono', monospace; font-size: 22px; font-style: italic; font-weight: 700; }
      .success { fill: #10b981; }
      .warning { fill: #f59e0b; }
      .error { fill: #f43f5e; }
    </style>
  </defs>
  <rect class="bg" x="0" y="0" width="1280" height="768" rx="6" />
  <text class="brand" x="30" y="34">Liberal IP Roller by censorny</text>
  <text class="version" x="1160" y="34">v0.3.3</text>
  <rect class="accent" x="0" y="46" width="1280" height="3" />
  <rect class="card" x="28" y="90" width="310" height="620" rx="12" />
  <rect class="card" x="56" y="134" width="256" height="42" rx="8" />
  <rect class="card" x="56" y="218" width="256" height="42" rx="8" />
  <rect class="card" x="56" y="302" width="256" height="42" rx="8" />
  <rect class="card" x="56" y="386" width="256" height="42" rx="8" />
  <rect class="card" x="56" y="470" width="256" height="42" rx="8" />
  <text class="muted" x="92" y="160">Rolling Dashboard</text>
  <text class="muted" x="114" y="244">My Addresses</text>
  <text class="muted" x="108" y="328">Cloud Credentials</text>
  <text class="muted" x="109" y="412">Process Settings</text>
  <text class="muted" x="98" y="496">Back to Selection</text>
  <rect class="card" x="378" y="90" width="862" height="120" rx="12" />
  <text class="muted" x="454" y="134">STATUS</text>
  <text class="muted" x="566" y="134">ATTEMPTS</text>
  <text class="muted" x="700" y="134">MATCHES</text>
  <text class="muted" x="834" y="134">ERRORS</text>
  <text class="muted" x="956" y="134">WORKERS</text>
  <text class="muted" x="1090" y="134">UPTIME</text>
  <text class="body accent" x="454" y="178">READY</text>
  <text class="body accent" x="588" y="178">0</text>
  <text class="body accent" x="714" y="178">0</text>
  <text class="body accent" x="855" y="178">0</text>
  <text class="body accent" x="1005" y="178">0</text>
  <text class="body accent" x="1136" y="178">00:00</text>
  <rect class="card" x="378" y="250" width="410" height="170" rx="12" />
  <rect class="card" x="808" y="250" width="432" height="170" rx="12" />
  <text class="body" x="404" y="298">Session Analytics</text>
  <text class="body" x="846" y="298">Top Subnets</text>
  <text class="body" x="404" y="342">Statistics will appear after the</text>
  <text class="body" x="404" y="370">first attempts.</text>
  <text class="body" x="846" y="342">Statistics will appear after the</text>
  <text class="body" x="846" y="370">first attempts.</text>
  <rect class="card" x="378" y="456" width="862" height="194" rx="12" />
  <rect x="1197" y="486" width="22" height="126" fill="#000000" />
  <rect class="card warning" x="590" y="684" width="196" height="46" rx="8" fill="none" stroke-width="3" />
  <rect class="card success" x="805" y="684" width="196" height="46" rx="8" fill="none" stroke-width="3" />
  <rect class="card error" x="1020" y="684" width="196" height="46" rx="8" fill="none" stroke-width="3" />
  <text class="body warning" x="635" y="713">Clear Logs</text>
  <text class="body success" x="848" y="713">START ROLLING</text>
  <text class="body error" x="1094" y="713">STOP</text>
  <text class="body" x="14" y="760">q Quit</text>
</svg>